<?xml version="1.0" encoding="iso-8859-1"?>
<!-- Uploaded to: SVG Repo, www.svgrepo.com, Generator: SVG Repo Mixer Tools -->
<svg fill="#ffffff" height="800px" width="800px" version="1.1" id="Capa_1" xmlns="http://www.w3.org/2000/svg" xmlns:xlink="http://www.w3.org/1999/xlink"
	 viewBox="0 0 29.046 29.046" xml:space="preserve">
<g>
	<path d="M25.334,17.932c0,1.291-1.193,2.104-2.486,2.104h-0.01c0.965,0.166,2.111,1.331,2.111,2.462
		c0,1.243-1.184,2.019-2.43,2.019h-1.072c0.844,0.243,1.977,1.375,1.977,2.462c0,1.27-1.191,2.067-2.459,2.067H10.156
		c-3.56,0-6.443-2.887-6.443-6.447c0,0,0-6.872,0-6.88c0-2.522,1.395-5.189,3.59-6.042c1.711-1.126,5.15-3.133,5.883-6.85
		c0-1.449,0-2.809,0-2.809s4.807-0.52,4.807,3.999c0,5.322-3.348,6.186-0.686,6.314h3.98c1.406,0,2.621,1.37,2.621,2.779
		c0,1.217-1.154,2.006-2.119,2.254h1.059C24.141,15.365,25.334,16.642,25.334,17.932z"/>
	<g>
	</g>
	<g>
	</g>
	<g>
	</g>
	<g>
	</g>
	<g>
	</g>
	<g>
	</g>
	<g>
	</g>
	<g>
	</g>
	<g>
	</g>
	<g>
	</g>
	<g>
	</g>
	<g>
	</g>
	<g>
	</g>
	<g>
	</g>
	<g>
	</g>
</g>
</svg>